<svg xml:space="preserve" style="enable-background:new 0 0 310.002 310.002" viewBox="0 0 310.002 310.002" xmlns="http://www.w3.org/2000/svg"><path fill="currentColor" d="m120.605 70.607 19.396-19.395v153.786c0 8.284 6.716 15 15 15 8.284 0 15-6.716 15-15V51.213l19.394 19.394a14.952 14.952 0 0 0 10.606 4.394c3.839 0 7.678-1.464 10.606-4.394 5.858-5.858 5.858-15.355 0-21.213L165.61 4.396a15.3 15.3 0 0 0-1.104-.997c-.166-.136-.341-.254-.51-.381-.222-.167-.439-.337-.67-.492-.207-.139-.422-.259-.635-.386-.207-.125-.41-.255-.624-.369-.217-.116-.439-.214-.661-.318-.223-.106-.441-.216-.67-.311-.214-.089-.432-.16-.649-.238-.244-.088-.485-.182-.736-.257-.216-.065-.435-.113-.652-.168-.256-.065-.51-.137-.771-.188-.25-.049-.503-.078-.755-.115-.232-.033-.46-.077-.695-.1a15.342 15.342 0 0 0-1.389-.07c-.03 0-.059-.004-.089-.004-.029 0-.059.004-.088.004-.464.002-.928.025-1.391.07-.23.023-.453.066-.68.098-.258.037-.516.067-.771.118-.254.05-.5.12-.749.183-.226.057-.452.106-.676.173-.241.073-.476.164-.712.249-.225.081-.452.155-.674.247-.22.091-.43.198-.644.299-.23.108-.462.211-.688.331-.204.109-.396.233-.595.352-.223.132-.447.258-.664.403-.217.145-.42.307-.629.462-.184.137-.371.264-.549.411-.365.299-.714.616-1.049.947-.016.016-.033.029-.05.045l-45.002 45c-5.858 5.858-5.858 15.355 0 21.213 5.861 5.858 15.359 5.856 21.216 0z"/><path fill="currentColor" d="M255.001 100.002h-40c-8.284 0-15 6.716-15 15s6.716 15 15 15h25v150h-170v-150h25c8.284 0 15-6.716 15-15s-6.716-15-15-15h-40c-8.284 0-15 6.716-15 15v180c0 8.284 6.716 15 15 15h200c8.284 0 15-6.716 15-15v-180c0-8.284-6.716-15-15-15z"/></svg>